<?xml version="1.0" encoding="UTF-8" standalone="no"?>
<!-- Created with Inkscape (http://www.inkscape.org/) -->

<svg
   width="51"
   height="52"
   viewBox="0 0 13.493759 13.758334"
   version="1.1"
   id="svg5"
   inkscape:version="1.1.1 (3bf5ae0d25, 2021-09-20)"
   sodipodi:docname="company_logo.svg"
   xmlns:inkscape="http://www.inkscape.org/namespaces/inkscape"
   xmlns:sodipodi="http://sodipodi.sourceforge.net/DTD/sodipodi-0.dtd"
   xmlns="http://www.w3.org/2000/svg"
   xmlns:svg="http://www.w3.org/2000/svg">
  <sodipodi:namedview
     id="namedview7"
     pagecolor="#505050"
     bordercolor="#ffffff"
     borderopacity="1"
     inkscape:pageshadow="0"
     inkscape:pageopacity="0"
     inkscape:pagecheckerboard="1"
     inkscape:document-units="mm"
     showgrid="false"
     units="px"
     width="285px"
     height="50px"
     inkscape:zoom="4.1524866"
     inkscape:cx="34.557607"
     inkscape:cy="32.631051"
     inkscape:window-width="1920"
     inkscape:window-height="1009"
     inkscape:window-x="-8"
     inkscape:window-y="-8"
     inkscape:window-maximized="1"
     inkscape:current-layer="layer1" />
  <defs
     id="defs2" />
  <g
     inkscape:label="Ebene 1"
     inkscape:groupmode="layer"
     id="layer1">
    <g
       id="g1222"
       transform="translate(-0.27032767,-0.14289398)">
      <path
         style="fill:#000000;stroke-width:0.0672539"
         d="M 7.1946123,13.659393 C 7.0466534,13.671703 6.6683499,13.656643 6.3539375,13.625738 6.0395253,13.594869 5.5117657,13.491202 5.1811385,13.395363 4.8505113,13.299527 4.3208863,13.087198 4.0041939,12.923521 3.6875017,12.759847 3.1787514,12.428419 2.873638,12.187011 2.5634324,11.941577 2.1254013,11.503547 1.8799666,11.193341 1.638561,10.888226 1.3071313,10.379476 1.1434561,10.062785 0.97978106,9.7460924 0.76872095,9.2207716 0.67443352,8.8954056 0.58014609,8.5700396 0.4768722,8.0195818 0.44493591,7.6721657 c -0.0325853,-0.3544754 -0.0325853,-0.9088539 0,-1.2633295 C 0.4768722,6.0614204 0.58014609,5.5109628 0.67443352,5.1855965 0.76872095,4.8602305 0.97978106,4.3349099 1.1434561,4.0182175 1.3071313,3.7015255 1.638561,3.192775 1.8799666,2.8876618 2.1254013,2.577456 2.5634324,2.1394252 2.873638,1.8939904 3.1787514,1.6525845 3.6875017,1.3211548 4.0041939,1.1574797 4.3208863,0.99380462 4.8462066,0.78274451 5.1715729,0.6884572 5.4969389,0.59416963 6.0473967,0.49089574 6.3948125,0.45895953 c 0.3544754,-0.0325855 0.9088539,-0.0325855 1.2633296,0 0.3474158,0.0319362 0.8978733,0.1352101 1.2232393,0.22949767 0.3253666,0.0942874 0.8506867,0.30534742 1.1673786,0.4690225 0.316693,0.1636751 0.825443,0.4951048 1.130557,0.7365107 0.310205,0.2454348 0.748236,0.6834656 0.993671,0.9936714 0.241406,0.3051132 0.572836,0.8138637 0.73651,1.1305557 0.163676,0.3166924 0.374736,0.842013 0.469023,1.167379 0.09429,0.3253663 0.197562,0.8758239 0.229498,1.2232397 0.03258,0.3544756 0.03258,0.9088541 0,1.2633295 -0.03194,0.3474161 -0.135211,0.8978739 -0.229498,1.2232399 -0.09429,0.325366 -0.305347,0.8506868 -0.469023,1.1673794 -0.163674,0.316691 -0.495104,0.825441 -0.73651,1.130556 -0.245435,0.310206 -0.683466,0.748236 -0.993671,0.99367 -0.305114,0.241408 -0.813864,0.572836 -1.130557,0.73651 -0.3166919,0.163677 -0.8357968,0.372935 -1.1535673,0.465022 -0.3177703,0.09209 -0.769869,0.185646 -1.004664,0.207914 -0.2347956,0.02226 -0.5479578,0.05059 -0.6959164,0.06294 z m 0.1008809,-1.088769 c 0.2404329,-0.01751 0.4462711,-0.03978 0.4574184,-0.04945 0.011149,-0.0097 -0.1395077,-0.338853 -0.3347883,-0.73151 -0.1952812,-0.392658 -0.3715223,-0.713921 -0.3916461,-0.713921 -0.020124,0 -0.1948099,0.318137 -0.3881912,0.706974 -0.1933814,0.388836 -0.3516023,0.720003 -0.3516023,0.735925 0,0.01594 0.1286227,0.0413 0.2858293,0.0564 0.157206,0.0151 0.4825471,0.01312 0.7229802,-0.0044 z M 5.3691368,12.351745 c 0.031699,0.001 0.036708,-0.05114 0.011131,-0.115874 C 5.3546865,12.17114 5.1072989,11.514132 4.8305153,10.775857 4.5537321,10.037583 4.3032199,9.3905592 4.2738217,9.3380261 4.2358486,9.2701732 4.1904785,9.3278077 4.1171409,9.5370276 4.0603644,9.6990116 3.8911347,10.17062 3.7410748,10.585051 l -0.2728361,0.753513 0.4722371,0.313943 c 0.2597302,0.172667 0.6744641,0.400224 0.9216306,0.505679 0.2471665,0.105458 0.4753293,0.192558 0.5070304,0.193559 z m 3.4148003,-0.03057 c 0.087603,-0.02558 0.4013927,-0.165398 0.69731,-0.310707 0.2959176,-0.145312 0.6076279,-0.317974 0.6926909,-0.383694 0.15466,-0.119497 0.15466,-0.119497 -0.164861,-1.007806 C 9.8333392,10.130399 9.6722202,9.7306605 9.6510332,9.7306605 c -0.021186,0 -0.2496421,0.5639675 -0.5076775,1.2532625 -0.2580359,0.689292 -0.4803029,1.282621 -0.4939266,1.31851 -0.014608,0.03848 0.040572,0.04617 0.134508,0.01873 z M 6.4806924,9.744684 C 6.7612585,9.1821249 7.0072098,8.721851 7.0272499,8.721851 c 0.02004,0 0.2616201,0.4535887 0.5368443,1.0079733 C 7.8611441,10.328173 8.083557,10.703749 8.1113906,10.654012 8.1371798,10.60793 8.3575887,10.038543 8.601188,9.3887062 8.8447881,8.7388714 9.0440965,8.1482651 9.0440965,8.0762513 9.0440965,8.0042364 8.55983,6.6017394 7.9679494,4.9595915 7.3760681,3.3174432 6.8835651,1.9656311 6.8734985,1.9555642 6.8634302,1.9454984 6.3926529,3.2223486 5.8273233,4.7930111 l -1.0278718,2.8557502 0.447573,1.192271 c 0.2461652,0.6557496 0.5096676,1.3574697 0.5855603,1.5593787 0.1379868,0.367106 0.1379868,0.367106 0.6481076,-0.655727 z m 4.7264336,0.92753 c 0.02469,0 0.149586,-0.143753 0.27754,-0.319456 0.127955,-0.1757 0.325443,-0.4859085 0.438863,-0.6893532 0.11342,-0.203442 0.281796,-0.6025176 0.374168,-0.8868296 0.09237,-0.2843147 0.19866,-0.7919946 0.236194,-1.1281769 0.04547,-0.4072774 0.04607,-0.8063435 0.0018,-1.1959236 -0.03654,-0.3215755 -0.113782,-0.7520891 -0.171649,-0.956697 -0.05787,-0.2046081 -0.20925,-0.591431 -0.336405,-0.8596062 -0.127154,-0.2681752 -0.252751,-0.487241 -0.279103,-0.4868129 -0.02635,4.321e-4 -0.365688,0.8519486 -0.75408,1.8922681 -0.388391,1.040319 -0.716131,1.9336992 -0.72831,1.9852884 -0.01218,0.051589 0.184455,0.6678877 0.436967,1.3695489 0.252512,0.701664 0.479315,1.27575 0.504008,1.27575 z M 2.6532758,10.361472 C 2.684122,10.328938 2.9228805,9.7064135 3.1838499,8.978088 L 3.6583402,7.6538545 3.0053333,5.9021974 C 2.6461794,4.9387857 2.3307656,4.150099 2.3044134,4.1495601 2.2780612,4.1490263 2.1524644,4.3679963 2.0253097,4.6361715 1.898155,4.9043467 1.7467732,5.2911696 1.688906,5.4957777 1.631039,5.7003856 1.5537106,6.1316516 1.5170664,6.4541465 c -0.043999,0.3872195 -0.043999,0.7854894 0,1.1727088 0.036644,0.322495 0.114998,0.7537607 0.1741191,0.9583696 0.059122,0.2046087 0.1757884,0.5271787 0.2592609,0.7168208 0.083473,0.1896423 0.2631379,0.5189051 0.3992564,0.7316933 0.1372053,0.214484 0.2724804,0.360526 0.303573,0.327733 z M 9.6818362,6.4890891 c 0.0093,-0.011136 0.2990731,-0.7743064 0.6439488,-1.6959346 L 10.952832,3.1174667 10.628101,2.8234683 C 10.449499,2.661769 10.094106,2.4051487 9.8383388,2.2532002 9.5825721,2.1012522 9.1161939,1.8905307 8.8019423,1.7849301 8.4876914,1.6793297 8.153134,1.5929293 8.0584822,1.5929293 c -0.1125151,0 -0.1606168,0.029909 -0.1389422,0.086393 0.018233,0.047516 0.3881986,1.0689359 0.8221434,2.2698213 0.4339448,1.2008855 0.8191991,2.2681998 0.8561209,2.3718099 0.036921,0.10361 0.074735,0.1792702 0.084032,0.1681356 z M 4.2360405,6.0193522 C 4.2474585,6.0076443 4.6097455,5.0191427 5.0411214,3.8226827 5.4724976,2.6262227 5.8157303,1.637973 5.80386,1.6265721 5.7919894,1.6151719 5.5343429,1.6892445 5.2313107,1.7911799 4.9282786,1.8931152 4.4709226,2.1009311 4.2149642,2.2529931 3.9590058,2.4050553 3.603443,2.6617809 3.4248245,2.8234948 l -0.3247609,0.294025 0.5261322,1.4066454 c 0.289373,0.773655 0.5402968,1.4313571 0.5576083,1.4615602 0.017312,0.030204 0.040818,0.045336 0.052236,0.033627 z"
         id="path1085"
         sodipodi:nodetypes="cccsssssssssssssssssssssccsssssscccccsssssccscsscscscscscssssccssssssscscssssssssscscssssssscscsssssssssscsssssssssssssscsss" />
    </g>
  </g>
</svg>
