<?xml version="1.0" encoding="utf-8"?>
<!-- Generator: Adobe Illustrator 16.0.0, SVG Export Plug-In . SVG Version: 6.00 Build 0)  -->
<!DOCTYPE svg PUBLIC "-//W3C//DTD SVG 1.0//EN" "http://www.w3.org/TR/2001/REC-SVG-20010904/DTD/svg10.dtd">
<svg version="1.0" id="Layer_1" xmlns="http://www.w3.org/2000/svg" xmlns:xlink="http://www.w3.org/1999/xlink" x="0px" y="0px"
	 width="100px" height="100px" viewBox="0 0 100 100" enable-background="new 0 0 100 100" xml:space="preserve">
<path d="M78.809,25.905L90,14.716l-4.717-4.717L73.115,22.172C70.137,20.792,66.829,20,63.333,20c-4.961,0-9.554,1.558-13.333,4.203
	C46.221,21.562,41.627,20,36.665,20C23.779,20.002,13.333,30.45,13.333,43.334H10v13.333c0,7.715,12.603,14.187,29.681,16.088
	l-6.348,10.579v6.667h33.333v-6.667l-6.348-10.583C77.402,70.854,90,64.382,90,56.667V43.334h-3.333
	C86.667,36.394,83.62,30.18,78.809,25.905z M63.333,26.667C72.536,26.667,80,34.128,80,43.334H60c0-5.418-1.862-10.391-4.961-14.351
	C57.487,27.554,60.293,26.667,63.333,26.667z M36.665,26.667c9.204,0,16.668,7.461,16.668,16.667H20
	C20,34.131,27.461,26.669,36.665,26.667z M41.108,83.334l6.034-10.059c0.95,0.026,1.894,0.059,2.858,0.059s1.907-0.032,2.858-0.062
	l6.035,10.062H41.108z M83.333,56.667c0,2.568-11.461,9.997-33.333,10l0,0l0,0l0,0c-21.872,0-33.333-7.432-33.333-10v-6.666h66.667
	V56.667z"/>
<circle cx="64.167" cy="32.5" r="2.5"/>
<circle cx="72.5" cy="37.5" r="2.5"/>
</svg>
