<?xml version="1.0" encoding="UTF-8" standalone="no"?>
<!-- Created with Inkscape (http://www.inkscape.org/) -->

<svg
   width="283"
   height="52"
   viewBox="0 0 74.877081 13.758334"
   version="1.1"
   id="svg5"
   inkscape:version="1.1.1 (3bf5ae0d25, 2021-09-20)"
   sodipodi:docname="CompanyLogo.svg"
   xmlns:inkscape="http://www.inkscape.org/namespaces/inkscape"
   xmlns:sodipodi="http://sodipodi.sourceforge.net/DTD/sodipodi-0.dtd"
   xmlns="http://www.w3.org/2000/svg"
   xmlns:svg="http://www.w3.org/2000/svg">
  <sodipodi:namedview
     id="namedview7"
     pagecolor="#505050"
     bordercolor="#ffffff"
     borderopacity="1"
     inkscape:pageshadow="0"
     inkscape:pageopacity="0"
     inkscape:pagecheckerboard="1"
     inkscape:document-units="mm"
     showgrid="false"
     units="px"
     width="285px"
     height="50px"
     inkscape:zoom="4.1524866"
     inkscape:cx="136.42428"
     inkscape:cy="47.802683"
     inkscape:window-width="1920"
     inkscape:window-height="1009"
     inkscape:window-x="-8"
     inkscape:window-y="-8"
     inkscape:window-maximized="1"
     inkscape:current-layer="layer1" />
  <defs
     id="defs2" />
  <g
     inkscape:label="Ebene 1"
     inkscape:groupmode="layer"
     id="layer1">
    <g
       id="g1222"
       transform="translate(-0.27032767,-0.14289398)">
      <path
         style="fill:#000000;stroke-width:0.0672539"
         d="M 7.1946123,13.659393 C 7.0466534,13.671703 6.6683499,13.656643 6.3539375,13.625738 6.0395253,13.594869 5.5117657,13.491202 5.1811385,13.395363 4.8505113,13.299527 4.3208863,13.087198 4.0041939,12.923521 3.6875017,12.759847 3.1787514,12.428419 2.873638,12.187011 2.5634324,11.941577 2.1254013,11.503547 1.8799666,11.193341 1.638561,10.888226 1.3071313,10.379476 1.1434561,10.062785 0.97978106,9.7460924 0.76872095,9.2207716 0.67443352,8.8954056 0.58014609,8.5700396 0.4768722,8.0195818 0.44493591,7.6721657 c -0.0325853,-0.3544754 -0.0325853,-0.9088539 0,-1.2633295 C 0.4768722,6.0614204 0.58014609,5.5109628 0.67443352,5.1855965 0.76872095,4.8602305 0.97978106,4.3349099 1.1434561,4.0182175 1.3071313,3.7015255 1.638561,3.192775 1.8799666,2.8876618 2.1254013,2.577456 2.5634324,2.1394252 2.873638,1.8939904 3.1787514,1.6525845 3.6875017,1.3211548 4.0041939,1.1574797 4.3208863,0.99380462 4.8462066,0.78274451 5.1715729,0.6884572 5.4969389,0.59416963 6.0473967,0.49089574 6.3948125,0.45895953 c 0.3544754,-0.0325855 0.9088539,-0.0325855 1.2633296,0 0.3474158,0.0319362 0.8978733,0.1352101 1.2232393,0.22949767 0.3253666,0.0942874 0.8506867,0.30534742 1.1673786,0.4690225 0.316693,0.1636751 0.825443,0.4951048 1.130557,0.7365107 0.310205,0.2454348 0.748236,0.6834656 0.993671,0.9936714 0.241406,0.3051132 0.572836,0.8138637 0.73651,1.1305557 0.163676,0.3166924 0.374736,0.842013 0.469023,1.167379 0.09429,0.3253663 0.197562,0.8758239 0.229498,1.2232397 0.03258,0.3544756 0.03258,0.9088541 0,1.2633295 -0.03194,0.3474161 -0.135211,0.8978739 -0.229498,1.2232399 -0.09429,0.325366 -0.305347,0.8506868 -0.469023,1.1673794 -0.163674,0.316691 -0.495104,0.825441 -0.73651,1.130556 -0.245435,0.310206 -0.683466,0.748236 -0.993671,0.99367 -0.305114,0.241408 -0.813864,0.572836 -1.130557,0.73651 -0.3166919,0.163677 -0.8357968,0.372935 -1.1535673,0.465022 -0.3177703,0.09209 -0.769869,0.185646 -1.004664,0.207914 -0.2347956,0.02226 -0.5479578,0.05059 -0.6959164,0.06294 z m 0.1008809,-1.088769 c 0.2404329,-0.01751 0.4462711,-0.03978 0.4574184,-0.04945 0.011149,-0.0097 -0.1395077,-0.338853 -0.3347883,-0.73151 -0.1952812,-0.392658 -0.3715223,-0.713921 -0.3916461,-0.713921 -0.020124,0 -0.1948099,0.318137 -0.3881912,0.706974 -0.1933814,0.388836 -0.3516023,0.720003 -0.3516023,0.735925 0,0.01594 0.1286227,0.0413 0.2858293,0.0564 0.157206,0.0151 0.4825471,0.01312 0.7229802,-0.0044 z M 5.3691368,12.351745 c 0.031699,0.001 0.036708,-0.05114 0.011131,-0.115874 C 5.3546865,12.17114 5.1072989,11.514132 4.8305153,10.775857 4.5537321,10.037583 4.3032199,9.3905592 4.2738217,9.3380261 4.2358486,9.2701732 4.1904785,9.3278077 4.1171409,9.5370276 4.0603644,9.6990116 3.8911347,10.17062 3.7410748,10.585051 l -0.2728361,0.753513 0.4722371,0.313943 c 0.2597302,0.172667 0.6744641,0.400224 0.9216306,0.505679 0.2471665,0.105458 0.4753293,0.192558 0.5070304,0.193559 z m 3.4148003,-0.03057 c 0.087603,-0.02558 0.4013927,-0.165398 0.69731,-0.310707 0.2959176,-0.145312 0.6076279,-0.317974 0.6926909,-0.383694 0.15466,-0.119497 0.15466,-0.119497 -0.164861,-1.007806 C 9.8333392,10.130399 9.6722202,9.7306605 9.6510332,9.7306605 c -0.021186,0 -0.2496421,0.5639675 -0.5076775,1.2532625 -0.2580359,0.689292 -0.4803029,1.282621 -0.4939266,1.31851 -0.014608,0.03848 0.040572,0.04617 0.134508,0.01873 z M 6.4806924,9.744684 C 6.7612585,9.1821249 7.0072098,8.721851 7.0272499,8.721851 c 0.02004,0 0.2616201,0.4535887 0.5368443,1.0079733 C 7.8611441,10.328173 8.083557,10.703749 8.1113906,10.654012 8.1371798,10.60793 8.3575887,10.038543 8.601188,9.3887062 8.8447881,8.7388714 9.0440965,8.1482651 9.0440965,8.0762513 9.0440965,8.0042364 8.55983,6.6017394 7.9679494,4.9595915 7.3760681,3.3174432 6.8835651,1.9656311 6.8734985,1.9555642 6.8634302,1.9454984 6.3926529,3.2223486 5.8273233,4.7930111 l -1.0278718,2.8557502 0.447573,1.192271 c 0.2461652,0.6557496 0.5096676,1.3574697 0.5855603,1.5593787 0.1379868,0.367106 0.1379868,0.367106 0.6481076,-0.655727 z m 4.7264336,0.92753 c 0.02469,0 0.149586,-0.143753 0.27754,-0.319456 0.127955,-0.1757 0.325443,-0.4859085 0.438863,-0.6893532 0.11342,-0.203442 0.281796,-0.6025176 0.374168,-0.8868296 0.09237,-0.2843147 0.19866,-0.7919946 0.236194,-1.1281769 0.04547,-0.4072774 0.04607,-0.8063435 0.0018,-1.1959236 -0.03654,-0.3215755 -0.113782,-0.7520891 -0.171649,-0.956697 -0.05787,-0.2046081 -0.20925,-0.591431 -0.336405,-0.8596062 -0.127154,-0.2681752 -0.252751,-0.487241 -0.279103,-0.4868129 -0.02635,4.321e-4 -0.365688,0.8519486 -0.75408,1.8922681 -0.388391,1.040319 -0.716131,1.9336992 -0.72831,1.9852884 -0.01218,0.051589 0.184455,0.6678877 0.436967,1.3695489 0.252512,0.701664 0.479315,1.27575 0.504008,1.27575 z M 2.6532758,10.361472 C 2.684122,10.328938 2.9228805,9.7064135 3.1838499,8.978088 L 3.6583402,7.6538545 3.0053333,5.9021974 C 2.6461794,4.9387857 2.3307656,4.150099 2.3044134,4.1495601 2.2780612,4.1490263 2.1524644,4.3679963 2.0253097,4.6361715 1.898155,4.9043467 1.7467732,5.2911696 1.688906,5.4957777 1.631039,5.7003856 1.5537106,6.1316516 1.5170664,6.4541465 c -0.043999,0.3872195 -0.043999,0.7854894 0,1.1727088 0.036644,0.322495 0.114998,0.7537607 0.1741191,0.9583696 0.059122,0.2046087 0.1757884,0.5271787 0.2592609,0.7168208 0.083473,0.1896423 0.2631379,0.5189051 0.3992564,0.7316933 0.1372053,0.214484 0.2724804,0.360526 0.303573,0.327733 z M 9.6818362,6.4890891 c 0.0093,-0.011136 0.2990731,-0.7743064 0.6439488,-1.6959346 L 10.952832,3.1174667 10.628101,2.8234683 C 10.449499,2.661769 10.094106,2.4051487 9.8383388,2.2532002 9.5825721,2.1012522 9.1161939,1.8905307 8.8019423,1.7849301 8.4876914,1.6793297 8.153134,1.5929293 8.0584822,1.5929293 c -0.1125151,0 -0.1606168,0.029909 -0.1389422,0.086393 0.018233,0.047516 0.3881986,1.0689359 0.8221434,2.2698213 0.4339448,1.2008855 0.8191991,2.2681998 0.8561209,2.3718099 0.036921,0.10361 0.074735,0.1792702 0.084032,0.1681356 z M 4.2360405,6.0193522 C 4.2474585,6.0076443 4.6097455,5.0191427 5.0411214,3.8226827 5.4724976,2.6262227 5.8157303,1.637973 5.80386,1.6265721 5.7919894,1.6151719 5.5343429,1.6892445 5.2313107,1.7911799 4.9282786,1.8931152 4.4709226,2.1009311 4.2149642,2.2529931 3.9590058,2.4050553 3.603443,2.6617809 3.4248245,2.8234948 l -0.3247609,0.294025 0.5261322,1.4066454 c 0.289373,0.773655 0.5402968,1.4313571 0.5576083,1.4615602 0.017312,0.030204 0.040818,0.045336 0.052236,0.033627 z M 41.931289,10.310736 c -0.303865,0.01456 -0.611358,-0.01124 -0.773422,-0.06489 C 41.00991,10.196867 40.79806,10.109345 40.687091,10.051355 40.576123,9.993364 40.356608,9.8157551 40.199283,9.6566664 40.029406,9.4848809 39.85608,9.2158403 39.772496,8.9941908 39.65833,8.6914501 39.636998,8.513015 39.65954,8.0493107 39.678175,7.6662642 39.733268,7.3750822 39.82655,7.1667769 39.90312,6.9957953 40.07269,6.737553 40.20337,6.5929051 40.334051,6.4482565 40.587141,6.2560983 40.765792,6.1658867 40.995581,6.0498529 41.234498,5.994178 41.58241,5.9755882 c 0.270487,-0.014454 0.618527,0.00925 0.773422,0.052647 0.154891,0.043409 0.421903,0.1807733 0.593356,0.3052549 0.219804,0.159587 0.373509,0.3499547 0.521218,0.6455473 0.173204,0.3466101 0.209487,0.498894 0.209487,0.879253 V 8.318327 h -1.555249 c -1.555247,0 -1.555247,0 -1.512656,0.2129589 0.02344,0.1171273 0.122051,0.3171379 0.219175,0.4444711 0.09712,0.1273301 0.301153,0.2880816 0.453404,0.3572234 0.152254,0.06914 0.431195,0.1263754 0.619872,0.127186 0.188676,7.626e-4 0.445923,-0.033416 0.571659,-0.076063 0.125731,-0.042647 0.310659,-0.1346613 0.410938,-0.2044741 0.182327,-0.1269334 0.182327,-0.1269334 0.41908,0.1952343 0.236754,0.322171 0.236754,0.322171 0.05306,0.4739899 -0.101033,0.0835 -0.350145,0.2161435 -0.553589,0.2947645 -0.219744,0.08492 -0.574648,0.152759 -0.874301,0.167118 z M 41.653771,7.7130407 c 0.592144,0 1.092232,-0.025246 1.111301,-0.056104 0.01907,-0.030857 -0.02694,-0.1806422 -0.102251,-0.3328549 C 42.563451,7.1232397 42.442964,7.0071843 42.223533,6.90096 41.987646,6.7867674 41.853336,6.763887 41.612614,6.7968812 c -0.169706,0.02326 -0.398814,0.095157 -0.509132,0.1597691 -0.110317,0.064613 -0.254203,0.193138 -0.319753,0.2856123 -0.06556,0.092475 -0.138848,0.2362296 -0.162883,0.3194564 -0.0437,0.1513213 -0.0437,0.1513213 1.032924,0.1513213 z m 4.924676,2.5949063 c -0.281071,0.01383 -0.5867,6.7e-5 -0.679173,-0.03054 -0.09247,-0.03062 -0.293074,-0.119509 -0.445776,-0.197522 -0.1527,-0.07801 -0.403027,-0.2842892 -0.55628,-0.4583929 C 44.702075,9.3997967 44.57601,9.1647947 44.476526,8.8372656 44.366196,8.4740432 44.343563,8.2722737 44.375166,7.9338514 c 0.02237,-0.2396581 0.113277,-0.5942838 0.201986,-0.7880566 0.08871,-0.1937735 0.275634,-0.4666537 0.415382,-0.6064012 0.139747,-0.1397472 0.408501,-0.3259863 0.597227,-0.4138642 0.267231,-0.1244308 0.45789,-0.1599226 0.861838,-0.1604345 0.357381,-4.829e-4 0.631816,0.041666 0.882425,0.135432 0.200053,0.074849 0.473753,0.2429422 0.608227,0.3735395 0.193653,0.1880743 0.230546,0.2611659 0.177416,0.3515022 -0.03689,0.062728 -0.153607,0.2134054 -0.259362,0.3348386 -0.17163,0.1970675 -0.201822,0.209295 -0.281064,0.1138181 -0.04882,-0.058832 -0.212243,-0.1779175 -0.363151,-0.2646329 -0.150908,-0.086715 -0.370204,-0.177613 -0.487326,-0.2019939 -0.117114,-0.024379 -0.336935,-0.010935 -0.488474,0.029863 -0.15154,0.040806 -0.379088,0.1651212 -0.505666,0.2762575 -0.126583,0.1111361 -0.28171,0.3370971 -0.344739,0.5021357 -0.08164,0.2137809 -0.103599,0.4066264 -0.07635,0.6706228 0.02104,0.2038031 0.103534,0.4761962 0.183338,0.6053188 0.07981,0.1291229 0.273744,0.3101604 0.430981,0.4023087 0.19247,0.112794 0.386908,0.167538 0.595055,0.167538 0.170042,0 0.391155,-0.031172 0.491362,-0.069269 0.100207,-0.038098 0.295165,-0.1587456 0.433242,-0.268105 0.25105,-0.1988337 0.25105,-0.1988337 0.495624,0.115091 0.244578,0.3139249 0.244578,0.3139249 0.07153,0.4945408 -0.09517,0.099342 -0.342274,0.263484 -0.54911,0.3647632 -0.283036,0.138588 -0.502494,0.190361 -0.887108,0.209283 z m 10.82614,-0.001 c -0.28011,0.01312 -0.600082,-2.55e-4 -0.711053,-0.02977 -0.110968,-0.02949 -0.32958,-0.119324 -0.485805,-0.199622 C 56.051506,9.9972379 55.813019,9.8208719 55.677757,9.6856082 55.542494,9.550347 55.354333,9.2706078 55.25962,9.0639655 55.121566,8.7627652 55.086953,8.5815467 55.085084,8.1502198 c -0.0018,-0.4400042 0.02924,-0.6059837 0.170951,-0.9109967 0.0953,-0.2051314 0.26649,-0.479132 0.38042,-0.6088906 0.113932,-0.1297581 0.368115,-0.3250955 0.564859,-0.4340818 0.3323,-0.1840803 0.407878,-0.1981573 1.06388,-0.1981573 0.656,0 0.731579,0.014076 1.063882,0.1981573 0.196741,0.1089858 0.446238,0.2989801 0.55443,0.4222075 0.108196,0.1232272 0.259475,0.3470622 0.336179,0.4974105 0.0767,0.1503482 0.167483,0.4445835 0.201734,0.6538556 0.04089,0.2498428 0.03749,0.5178028 -0.01,0.7803641 -0.03969,0.2199261 -0.130485,0.5141999 -0.201778,0.6539398 -0.07129,0.1397401 -0.236349,0.360805 -0.366801,0.4912544 -0.130445,0.1304495 -0.392858,0.3160674 -0.58313,0.4124864 -0.259427,0.131461 -0.473322,0.181272 -0.85524,0.199162 z M 57.244002,9.4590401 c 0.154798,0.00152 0.366649,-0.029648 0.470779,-0.0691 0.104123,-0.039453 0.261412,-0.1378133 0.34952,-0.218574 0.08811,-0.080763 0.216065,-0.2678991 0.284352,-0.4158595 C 58.416943,8.6075487 58.47331,8.3503026 58.473912,8.18385 58.474421,8.0173951 58.444882,7.7727178 58.408042,7.6401212 58.371213,7.5075229 58.233648,7.291608 58.10235,7.1603086 57.963119,7.0210776 57.738919,6.8866679 57.564409,6.8378084 57.326262,6.771132 57.204522,6.7710207 56.967915,6.8372745 c -0.163504,0.045778 -0.394958,0.1783347 -0.514341,0.2945697 -0.119393,0.1162355 -0.25799,0.308724 -0.308008,0.427752 -0.05003,0.1190209 -0.09095,0.3696735 -0.09095,0.556998 0,0.1873256 0.04684,0.4526955 0.104097,0.5897157 0.05724,0.1370176 0.170741,0.3214896 0.252201,0.409937 0.08145,0.088448 0.238906,0.2011671 0.349874,0.2504898 0.110973,0.049318 0.328414,0.090858 0.483212,0.092306 z m 12.349127,0.8509129 c -0.353608,0.01955 -0.608191,-0.002 -0.780245,-0.06653 -0.140467,-0.05255 -0.372562,-0.17309 -0.515778,-0.2678663 C 68.153888,9.8807791 67.959509,9.7020211 67.865153,9.5783128 67.770796,9.454602 67.627243,9.2037308 67.546142,9.0208196 67.43953,8.7803677 67.397281,8.5485403 67.393616,8.1838489 c -0.0033,-0.3226851 0.03834,-0.6296848 0.115438,-0.8521442 0.06628,-0.191256 0.242928,-0.4868112 0.392548,-0.6567893 0.149617,-0.1699777 0.412796,-0.3917997 0.584839,-0.492936 0.28484,-0.1674476 0.373321,-0.183886 0.989743,-0.183886 0.620069,0 0.709914,0.01695 1.06954,0.2017619 0.215926,0.1109698 0.45233,0.2822064 0.525336,0.3805277 0.132736,0.1787657 0.132736,0.1787657 -0.124914,0.4870015 C 70.688488,7.3756203 70.688488,7.3756203 70.517294,7.215753 70.42313,7.1278257 70.2553,7.0106795 70.144329,6.9554268 70.033361,6.9001744 69.846743,6.8343423 69.729621,6.8091334 c -0.117127,-0.025208 -0.343009,-0.010817 -0.501969,0.03199 -0.171607,0.046209 -0.389461,0.1782702 -0.536271,0.3250808 -0.135993,0.1359903 -0.280676,0.3676305 -0.32152,0.5147551 -0.04085,0.1471249 -0.07444,0.3668303 -0.07465,0.4882356 0,0.121403 0.04663,0.3332535 0.104071,0.470777 0.05745,0.1375234 0.186072,0.3359708 0.28583,0.4409963 0.09976,0.105023 0.26311,0.2336472 0.362989,0.2858295 0.09988,0.05218 0.320277,0.094875 0.489757,0.094875 0.169474,0 0.405528,-0.04081 0.524555,-0.09069 0.119026,-0.049879 0.311311,-0.1707128 0.427298,-0.2685194 0.21088,-0.17783 0.21088,-0.17783 0.462188,0.128861 0.251316,0.3066934 0.251316,0.3066934 0.06019,0.5061854 -0.105119,0.1097231 -0.349297,0.2768803 -0.542618,0.3714613 -0.256588,0.125538 -0.493194,0.179802 -0.876348,0.200981 z m 3.880273,0.0054 c -0.370543,0.01786 -0.597223,-0.0088 -0.854139,-0.100557 -0.192353,-0.06868 -0.472299,-0.209815 -0.6221,-0.3136281 -0.149801,-0.103813 -0.269802,-0.2224629 -0.266676,-0.2636694 0.0031,-0.041209 0.126739,-0.1790884 0.274673,-0.3064011 0.222744,-0.191696 0.288229,-0.2178265 0.381013,-0.1520274 0.06163,0.0437 0.233103,0.1459778 0.381061,0.227285 0.183038,0.1005849 0.390296,0.1491728 0.648498,0.1520274 0.28293,0.00313 0.415549,-0.028403 0.521218,-0.1239239 0.08994,-0.081304 0.141738,-0.2096875 0.141738,-0.3513567 0,-0.1758017 -0.0393,-0.2433064 -0.18495,-0.3176794 C 73.792016,8.7134476 73.4495,8.5923243 73.132591,8.4962284 72.815685,8.4001351 72.434333,8.2330903 72.285151,8.1250221 72.118408,8.0042337 71.97117,7.8217239 71.902981,7.651301 71.841968,7.4988236 71.792048,7.298049 71.792048,7.2051347 c 0,-0.092914 0.04656,-0.2803447 0.103442,-0.4165145 0.0569,-0.1361697 0.155255,-0.3059403 0.218577,-0.3772693 0.06333,-0.071328 0.266453,-0.2007632 0.4514,-0.2876339 0.245701,-0.1154026 0.455665,-0.158122 0.779547,-0.1586022 0.243804,-3.304e-4 0.587215,0.042663 0.763144,0.095611 0.175932,0.052947 0.437991,0.1781202 0.582353,0.2781626 0.144361,0.1000414 0.262472,0.2170326 0.262472,0.2599797 0,0.042947 -0.117572,0.1928949 -0.26128,0.3332183 -0.165568,0.1616699 -0.278176,0.2277947 -0.3074,0.1805049 C 74.358937,7.0715459 74.190007,6.962879 74.008905,6.8711077 73.800903,6.7657062 73.566214,6.7042518 73.371696,6.7042518 c -0.237271,0 -0.345821,0.037882 -0.473019,0.1650783 -0.09079,0.090793 -0.165074,0.2132253 -0.165074,0.2720725 0,0.058848 0.07026,0.1772505 0.156124,0.2631191 0.09176,0.09176 0.431406,0.2425183 0.82386,0.3656848 0.367253,0.1152573 0.769756,0.290796 0.894438,0.3900847 0.124683,0.099288 0.268444,0.2804204 0.319456,0.4025172 0.05102,0.1220997 0.09276,0.3269242 0.09276,0.4551672 0,0.1282429 -0.03219,0.3183682 -0.07153,0.4224964 -0.03934,0.1041312 -0.152833,0.2753265 -0.252201,0.3804359 -0.09937,0.1051095 -0.301729,0.2538781 -0.449687,0.3305971 -0.181546,0.09414 -0.433014,0.147399 -0.77342,0.163812 z m -56.374609,-0.06067 -0.514385,0.01957 0.244259,-0.6248578 C 16.96301,9.3056959 17.456875,8.0409204 17.926145,6.8387557 l 0.853218,-2.1857541 h 0.48782 0.48782 l 1.067301,2.7567949 c 0.587015,1.5162362 1.067301,2.7810435 1.067301,2.8106825 0,0.02964 -0.231455,0.04505 -0.514345,0.03424 -0.514344,-0.01965 -0.514344,-0.01965 -0.748661,-0.641741 L 20.392281,8.9908839 h -1.152456 -1.152456 l -0.237096,0.6220977 c -0.237095,0.6221004 -0.237095,0.6221004 -0.75148,0.6416704 z m 2.134928,-2.2053309 c 0.720367,0 0.785222,-0.010162 0.750955,-0.1176943 C 19.964049,7.8668998 19.800791,7.399486 19.621883,6.8929345 19.442976,6.3863836 19.279202,5.9545371 19.257942,5.9332767 c -0.02126,-0.02126 -0.190689,0.3931908 -0.376508,0.9210027 -0.185818,0.5278121 -0.359974,1.0126204 -0.387012,1.0773522 -0.04519,0.1081935 0.0145,0.1176944 0.739299,0.1176945 z m 4.805431,2.2186329 c -0.372476,7.62e-4 -0.372476,7.62e-4 -1.251421,-2.8264836 l -0.878946,-2.8272318 0.53682,0.019379 0.536819,0.019379 0.525971,1.7486032 c 0.289285,0.961732 0.54542,1.8620941 0.569193,2.0008071 0.02377,0.1387106 0.06746,0.2522005 0.09708,0.2522005 0.02962,0 0.07484,-0.1118275 0.100482,-0.2485071 0.02564,-0.1366795 0.259298,-0.7949277 0.519238,-1.4627737 0.259941,-0.6678469 0.500642,-1.267229 0.534889,-1.3319608 0.04856,-0.091775 0.149744,-0.1176944 0.459461,-0.1176944 0.218455,0 0.415328,0.029351 0.437502,0.065225 0.02217,0.035874 0.293014,0.7344342 0.601876,1.5523556 0.308862,0.8179207 0.575836,1.4619514 0.593273,1.4311743 0.01744,-0.030775 0.05208,-0.1467455 0.07699,-0.2577164 0.02491,-0.1109684 0.276745,-0.9810665 0.55964,-1.9335509 l 0.514356,-1.7317897 h 0.530254 c 0.474305,0 0.526337,0.012415 0.493143,0.1176943 -0.02042,0.064732 -0.401818,1.2828694 -0.847567,2.7069725 -0.445753,1.4241017 -0.827022,2.6436769 -0.847269,2.7101619 -0.03067,0.100732 -0.09879,0.117552 -0.408637,0.100882 -0.371827,-0.02 -0.371827,-0.02 -1.050339,-1.6509167 C 26.068776,7.7071677 25.743539,6.9959569 25.719208,7.023701 25.694876,7.0514441 25.390719,7.7925841 25.043303,8.6706767 24.411632,10.26721 24.411632,10.26721 24.039156,10.26796 Z m 10.729588,7.62e-4 H 32.919256 V 7.4440132 4.6193462 h 1.849484 1.849486 V 5.0901241 5.560902 h -1.345081 -1.345079 v 0.6725398 0.6725396 h 1.143318 1.143318 V 7.3767593 7.847537 H 35.071384 33.928066 V 8.5873321 9.327124 h 1.345079 1.345081 V 9.7979035 10.26868 Z m 3.530834,0 H 37.828797 V 7.2758898 4.2830883 h 0.470777 0.470778 v 2.9928015 2.9928012 z m 11.636112,0 h -0.469603 l -0.018,-1.6645363 -0.018,-1.6645356 -0.420336,-0.020022 c -0.420338,-0.020022 -0.420338,-0.020022 -0.420338,-0.4539645 0,-0.4339413 0,-0.4339413 0.43715,-0.4339413 0.437151,0 0.437151,0 0.437151,-0.5380318 0,-0.5380319 0,-0.5380319 0.47078,-0.5380319 0.470776,0 0.470776,0 0.470776,0.5380319 0,0.5380318 0,0.5380318 0.47078,0.5380318 0.470778,0 0.470778,0 0.470778,0.4371506 0,0.4371509 0,0.4371509 -0.470778,0.4371509 h -0.47078 v 1.6813502 1.681348 z m 2.655358,0 H 52.086639 V 8.1502198 6.0317205 h 0.470778 c 0.468517,0 0.470781,8.897e-4 0.471694,0.1849484 5.08e-4,0.1017216 0.01858,0.250757 0.04015,0.3311894 0.03739,0.1393959 0.04885,0.135276 0.244915,-0.088029 0.113133,-0.1288492 0.320844,-0.2930168 0.461583,-0.3648166 0.162147,-0.082721 0.392383,-0.1305464 0.628468,-0.1305464 0.291112,0 0.372576,0.022712 0.372576,0.1038732 0,0.057131 -0.04845,0.2967426 -0.107659,0.5324732 -0.107659,0.4286003 -0.107659,0.4286003 -0.453964,0.3964062 -0.252519,-0.023477 -0.409687,7.881e-4 -0.58035,0.089627 -0.12873,0.067001 -0.302746,0.2246552 -0.386713,0.3503415 -0.14558,0.217923 -0.152659,0.2888819 -0.152659,1.5300279 v 1.3015067 z m 8.238611,0 H 60.358878 V 8.1502198 6.0317205 h 0.470777 c 0.470776,0 0.470776,0 0.470776,0.2690158 0,0.1479586 0.01871,0.2690158 0.04157,0.2690158 0.02285,0 0.149282,-0.094578 0.280939,-0.2101753 0.131657,-0.1155964 0.338962,-0.2517853 0.460683,-0.3026429 0.121724,-0.050857 0.401895,-0.092468 0.622611,-0.092468 0.220719,0 0.486504,0.032121 0.590631,0.071379 0.104137,0.039259 0.288517,0.1670564 0.409747,0.2839956 0.130812,0.1261751 0.260683,0.3482021 0.319456,0.5461135 0.07458,0.2511304 0.09904,0.7125188 0.09904,1.868131 v 1.534636 H 63.654329 63.183553 L 63.183418,8.8395729 C 63.183349,7.6136923 63.16659,7.3769476 63.065728,7.1750375 62.980488,7.0044022 62.873258,6.91376 62.67594,6.845539 62.504256,6.786181 62.311261,6.768779 62.153286,6.798416 c -0.137755,0.025843 -0.355005,0.1387765 -0.48278,0.250964 -0.12911,0.113361 -0.262755,0.3135603 -0.300829,0.4506476 -0.03769,0.1356679 -0.06869,0.814126 -0.06888,1.507681 l -2.54e-4,1.2610124 z m 5.044048,0 H 65.402926 V 8.1502198 6.0317205 h 0.470777 0.470776 v 2.1184993 2.1185012 z m 0.01218,-5.1785561 c -0.164236,0 -0.329548,-0.052345 -0.440206,-0.1393893 -0.131016,-0.1030573 -0.177205,-0.2006249 -0.177205,-0.3743182 0,-0.1292107 0.03003,-0.2910443 0.06674,-0.3596296 0.03671,-0.068586 0.172896,-0.1597355 0.302644,-0.202556 0.178683,-0.058972 0.293124,-0.058972 0.47181,0 0.129752,0.04282 0.265935,0.1339709 0.302643,0.202556 0.03671,0.068586 0.06673,0.2188586 0.06673,0.3339408 0,0.1324844 -0.06055,0.2697961 -0.165074,0.3743183 -0.118987,0.1189842 -0.238516,0.165078 -0.428087,0.165078 z"
         id="path1085" />
    </g>
  </g>
</svg>
