<?xml version="1.0" encoding="UTF-8"?>
<svg xmlns="http://www.w3.org/2000/svg" xmlns:xlink="http://www.w3.org/1999/xlink" viewBox="0 0 24 24" width="24px" height="24px">
<g id="surface5472361">
<path style=" stroke:none;fill-rule:nonzero;fill:rgb(71.764708%,71.764708%,71.764708%);fill-opacity:1;" d="M 12 19.078125 C 8.089844 19.078125 4.921875 15.910156 4.921875 12 C 4.921875 8.089844 8.089844 4.921875 12 4.921875 C 15.910156 4.921875 19.078125 8.089844 19.078125 12 C 19.078125 15.910156 15.910156 19.078125 12 19.078125 Z M 12 19.078125 "/>
<path style=" stroke:none;fill-rule:nonzero;fill:rgb(0%,0%,0%);fill-opacity:1;" d="M 12 4 C 7.589844 4 4 7.589844 4 12 C 4 16.410156 7.589844 20 12 20 C 16.410156 20 20 16.410156 20 12 C 20 7.589844 16.410156 4 12 4 Z M 12 5.601562 C 15.542969 5.601562 18.398438 8.457031 18.398438 12 C 18.398438 15.542969 15.542969 18.398438 12 18.398438 C 8.457031 18.398438 5.601562 15.542969 5.601562 12 C 5.601562 8.457031 8.457031 5.601562 12 5.601562 Z M 11.199219 8 L 11.199219 11.199219 L 8 11.199219 L 8 12.800781 L 11.199219 12.800781 L 11.199219 16 L 12.800781 16 L 12.800781 12.800781 L 16 12.800781 L 16 11.199219 L 12.800781 11.199219 L 12.800781 8 Z M 11.199219 8 "/>
</g>
</svg>
